# xmcd
#
# Track frame offsets: 
#        182
#        13385
#        26277
#        38832
#        50100
#        62947
#        75092
#        86545
#        101770
#        111075
#        122072
#        135017
#        149285
#        161772
#        172232
#        182792
#        194540
#        206720
#        216987
#        231915
#
# Disc length: 3242 seconds
#
# Revision: 2
# Processed by: cddbd v1.5.1PL0 Copyright (c) Steve Scherf et al.
# Submitted via: ExactAudioCopy v0.95a5
#
DISCID=210ca814
DTITLE=Various Artist - Soul Classics Of The 60s
DYEAR=1994
DGENRE=Soul
TTITLE0=Fontella Bass - Rescue Me
TTITLE1=Tommy Tucker - Hi Heel Sneekers
TTITLE2=Shirley Ellis - The Clapping Song
TTITLE3=Lee Dorsey - Holy Cow
TTITLE4=Dobie Gray - The "In" Crowd
TTITLE5=Judie Clay and William Bell - Private Number
TTITLE6=Isley Brothers - Twist and Shout
TTITLE7=Ramsy Lewis - Wade In The Water
TTITLE8=Ike And Tina Turner - I Can't Believe What You Say
TTITLE9=The Tams - Hey Girl Don't Bother Me
TTITLE10=The Impressions - It's All Right
TTITLE11=Eddie Floyd - Knock On Wood
TTITLE12=Lee Dorsey - Working In A Coalmine
TTITLE13=The Ikettes - Peaches 'N' Cream
TTITLE14=Clarence Frogman Henry - (I Don't Know Why) But I Do
TTITLE15=Robert Parker - Barefootin'
TTITLE16=Aaron Neville - Tell It Like It Is
TTITLE17=Betty Everett - The Shoop Shoop Song (It's In His Kiss)
TTITLE18=Booker T and The MGs - Time Is Tight
TTITLE19=The Impressions - Keep On Pushing
EXTD=
EXTT0=
EXTT1=
EXTT2=
EXTT3=
EXTT4=
EXTT5=
EXTT6=
EXTT7=
EXTT8=
EXTT9=
EXTT10=
EXTT11=
EXTT12=
EXTT13=
EXTT14=
EXTT15=
EXTT16=
EXTT17=
EXTT18=
EXTT19=
PLAYORDER=
